<?xml version="1.0" encoding="UTF-8" standalone="no"?>
<!DOCTYPE svg PUBLIC "-//W3C//DTD SVG 1.1//EN" "http://www.w3.org/Graphics/SVG/1.1/DTD/svg11.dtd">
<svg width="100%" height="100%" viewBox="0 0 586 425" version="1.1" xmlns="http://www.w3.org/2000/svg" xmlns:xlink="http://www.w3.org/1999/xlink" xml:space="preserve" xmlns:serif="http://www.serif.com/" style="fill-rule:evenodd;clip-rule:evenodd;stroke-linejoin:round;stroke-miterlimit:2;">
    <g transform="matrix(1,0,0,1,-881.253053,-197.620994)">
        <g transform="matrix(1,0,0,1,880,196)">
            <path d="M146.495,102C71.224,112.116 68.348,112.082 61.502,112.002C-6.392,111.209 -20.91,30.734 38.603,6.752C78.806,-9.448 98.142,16.444 130.359,32.772C141.943,38.644 141.308,39.681 193.714,66.055C275.992,107.463 505.814,81.329 533.528,89.424C604.614,110.188 614.991,229.834 502.504,230.93C371.078,232.21 316.862,325.453 279.712,367.676C270.316,378.355 244.943,435.654 177.454,424.806C119.011,415.411 74.277,327.846 140.782,270.83C188.76,229.697 278.891,289.85 394.25,220.062C394.869,219.688 460.236,168.464 437.193,151.937C417.308,137.675 393.129,131.453 279.455,108.803C225.819,98.116 173.567,99.236 146.495,102Z" style="fill:white;fill-opacity:0.93;"/>
        </g>
    </g>
</svg>
