<?xml version="1.0" standalone="no"?>
<!DOCTYPE svg PUBLIC "-//W3C//DTD SVG 20010904//EN"
 "http://www.w3.org/TR/2001/REC-SVG-20010904/DTD/svg10.dtd">
<svg version="1.0" xmlns="http://www.w3.org/2000/svg"
 width="729.433986pt" height="687.641898pt" viewBox="0 0 729.433986 687.641898"
 preserveAspectRatio="xMidYMid meet">
<metadata>
Created by potrace 1.12, written by Peter Selinger 2001-2015
</metadata>
<g transform="translate(-149.566014,856.641898) scale(0.100000,-0.100000)"
fill="#000000" stroke="none">
<path d="M3970 8564 c-14 -2 -62 -9 -107 -15 -46 -6 -81 -14 -78 -19 2 -4 -7
-5 -22 -2 -16 3 -24 1 -20 -5 4 -6 -4 -8 -20 -5 -17 3 -24 1 -19 -6 3 -6 -1
-8 -11 -6 -24 6 -129 -49 -125 -65 1 -7 -2 -10 -8 -6 -14 8 -63 -42 -54 -57 4
-7 3 -8 -4 -4 -22 13 -46 -55 -47 -130 0 -54 6 -82 24 -122 13 -28 29 -48 34
-45 6 3 7 1 3 -6 -9 -15 32 -73 46 -65 7 5 8 2 3 -5 -8 -14 161 -185 175 -176
4 2 18 -7 30 -20 13 -14 20 -25 16 -25 -4 0 2 -14 14 -30 12 -17 26 -28 31
-24 5 3 9 2 8 -3 -4 -21 2 -34 13 -27 6 4 8 3 5 -4 -8 -12 2 -44 12 -38 12 8
5 -118 -8 -142 -6 -12 -9 -28 -5 -34 4 -7 3 -8 -4 -4 -11 6 -16 -6 -13 -26 0
-5 -2 -7 -7 -6 -11 3 -127 -113 -124 -124 1 -5 -2 -7 -8 -3 -12 8 -326 -302
-316 -312 8 -8 -14 -34 -24 -28 -12 7 -70 -66 -63 -78 3 -6 1 -7 -5 -3 -12 7
-59 -50 -54 -66 1 -5 -2 -7 -7 -4 -12 8 -72 -74 -64 -87 3 -6 1 -7 -4 -4 -11
7 -46 -39 -46 -60 0 -7 -4 -10 -7 -8 -9 6 -83 -104 -83 -122 0 -7 -3 -11 -5
-8 -9 9 -53 -65 -46 -78 4 -6 4 -9 -1 -5 -12 11 -38 -29 -29 -45 4 -6 4 -9 -1
-5 -11 11 -38 -29 -29 -44 4 -6 3 -8 -3 -5 -13 8 -46 -50 -37 -65 4 -6 3 -8
-3 -5 -13 8 -116 -191 -109 -210 4 -9 1 -11 -6 -7 -8 5 -9 2 -5 -10 4 -9 3
-15 -2 -12 -12 8 -94 -192 -87 -211 3 -8 2 -12 -3 -8 -12 7 -35 -61 -25 -76 5
-8 3 -9 -6 -4 -10 6 -12 3 -8 -13 4 -14 2 -20 -5 -15 -6 4 -8 -2 -5 -15 4 -14
2 -20 -5 -15 -6 4 -8 -2 -5 -15 4 -14 2 -20 -5 -15 -6 4 -8 -2 -5 -15 4 -12 3
-20 -2 -17 -11 7 -34 -81 -25 -96 5 -7 4 -10 -2 -6 -13 8 -67 -187 -60 -214 3
-11 2 -17 -3 -14 -10 6 -55 -230 -80 -419 -27 -204 -40 -388 -40 -568 0 -105
-4 -158 -11 -158 -5 0 -7 -5 -3 -12 5 -7 3 -8 -5 -4 -16 10 -73 -13 -64 -27 3
-6 1 -7 -5 -3 -14 9 -103 -35 -95 -47 3 -6 1 -7 -5 -3 -15 9 -73 -24 -65 -37
3 -6 1 -7 -5 -3 -16 9 -164 -92 -156 -106 4 -7 3 -8 -4 -4 -21 13 -222 -179
-215 -205 2 -5 -1 -8 -5 -6 -15 4 -64 -62 -56 -74 4 -7 3 -9 -4 -6 -13 9 -75
-90 -66 -105 4 -6 3 -8 -3 -5 -13 8 -26 -20 -16 -35 4 -7 1 -8 -7 -3 -10 6
-12 4 -7 -9 4 -9 3 -15 -2 -12 -11 7 -23 -22 -14 -36 3 -6 1 -8 -5 -4 -14 8
-49 -99 -61 -189 -10 -70 -5 -158 9 -150 5 3 6 -5 2 -17 -4 -16 -2 -19 8 -13
9 6 11 4 5 -4 -9 -15 14 -63 26 -55 5 3 6 -1 3 -9 -5 -15 11 -31 31 -32 6 -1
9 -6 8 -13 -5 -21 81 -62 144 -68 67 -7 167 11 156 29 -3 5 -1 7 5 3 14 -9 83
25 75 37 -3 6 -2 7 4 4 10 -6 146 57 139 64 -3 2 8 5 22 5 40 3 313 24 414 32
53 5 84 4 81 -2 -4 -5 1 -7 11 -3 9 4 15 3 12 -1 -7 -12 63 -44 76 -36 6 4 8
2 4 -4 -8 -13 29 -26 45 -16 7 4 9 3 5 -4 -8 -13 100 -55 116 -46 6 4 8 2 4
-4 -8 -13 29 -26 45 -16 8 5 9 3 4 -6 -6 -10 -4 -12 9 -7 9 4 15 3 12 -1 -3
-5 14 -18 37 -29 23 -11 64 -37 91 -58 27 -20 56 -38 65 -40 9 -1 16 -8 16
-16 1 -8 7 -13 15 -11 8 2 12 0 7 -4 -10 -10 43 -65 56 -57 6 3 7 2 4 -4 -8
-13 37 -56 48 -46 4 5 5 3 1 -4 -8 -15 50 -57 65 -47 7 4 9 3 6 -3 -10 -15 47
-33 103 -33 47 0 135 36 135 56 0 16 16 35 25 29 12 -7 33 22 24 36 -4 7 -3 9
3 6 13 -8 47 68 38 84 -5 7 -4 10 3 5 16 -9 27 71 27 189 -1 102 -31 299 -44
290 -5 -2 -6 7 -3 22 4 19 2 24 -8 18 -9 -6 -11 -4 -5 4 9 15 -14 103 -25 96
-5 -3 -6 5 -2 17 3 13 1 19 -5 15 -7 -5 -9 1 -5 15 4 16 2 19 -8 13 -9 -5 -11
-4 -6 4 10 16 -24 102 -37 94 -5 -3 -7 -1 -4 5 9 14 -3 43 -14 36 -5 -3 -6 3
-2 12 5 13 3 15 -7 9 -9 -5 -11 -4 -6 3 9 15 -18 55 -29 44 -5 -4 -5 -2 -1 5
9 16 -23 65 -37 56 -5 -3 -7 -2 -4 4 9 14 -22 55 -35 47 -7 -4 -8 -2 -4 4 7
12 -62 95 -74 87 -9 -6 -42 29 -35 37 3 3 -12 20 -33 37 -22 17 -42 28 -45 25
-10 -10 -1 39 17 93 10 29 14 58 10 64 -4 7 -3 9 4 5 13 -8 26 29 16 45 -4 7
-3 9 4 5 13 -8 26 29 16 45 -4 7 -3 9 3 6 13 -8 36 50 26 66 -3 5 -2 7 3 4 13
-8 116 201 108 216 -4 7 -4 9 1 5 11 -10 47 50 39 64 -5 7 -2 8 6 3 10 -6 12
-4 7 9 -4 9 -3 15 2 12 9 -6 53 68 46 78 -3 3 -2 4 2 1 10 -7 55 64 48 75 -4
6 -1 9 7 8 7 -2 12 5 12 14 -1 10 3 16 10 15 6 -1 10 6 10 15 -1 10 2 16 6 13
9 -6 43 43 43 62 0 7 4 10 8 7 11 -6 30 31 21 41 -4 3 -2 5 4 3 16 -4 75 72
67 85 -3 5 -1 7 5 3 13 -8 55 48 44 59 -4 5 -2 5 5 1 11 -6 50 37 52 59 1 6 5
10 10 10 9 0 152 150 148 156 -1 2 0 3 2 2 10 -6 140 120 134 131 -3 6 -3 8 2
4 9 -9 60 29 60 45 0 7 5 12 10 12 20 1 55 26 50 36 -4 5 -3 8 2 7 15 -4 54
23 47 34 -4 6 -3 8 3 5 11 -7 119 70 116 82 -1 4 4 8 10 8 19 0 68 34 62 43
-3 4 3 7 13 6 9 0 16 4 15 10 -1 7 5 11 15 10 9 0 16 4 15 10 -1 7 5 11 15 10
9 0 16 5 14 12 -1 8 2 11 8 7 13 -8 82 39 72 50 -4 5 -1 5 5 1 16 -9 56 17 45
29 -4 5 -1 5 5 1 16 -9 74 24 66 37 -3 6 -1 7 5 3 13 -8 75 28 65 38 -4 4 1 4
11 0 15 -6 17 -4 11 6 -5 8 -4 11 3 6 13 -8 143 54 136 66 -3 4 3 5 12 1 12
-4 15 -3 10 5 -5 8 -1 10 10 5 13 -5 15 -3 9 7 -5 8 -4 11 3 6 15 -9 93 24 85
37 -3 5 -1 7 5 3 14 -9 105 28 95 39 -4 4 -2 5 5 1 15 -9 54 2 47 14 -3 4 5 6
17 2 13 -3 19 -1 15 5 -5 7 1 9 15 5 13 -3 19 -1 15 5 -5 7 1 9 15 5 16 -4 19
-2 14 9 -4 8 0 5 9 -6 11 -14 13 -28 8 -50 -4 -16 -8 -44 -8 -62 0 -17 -3 -29
-6 -27 -10 6 -41 -105 -33 -119 4 -6 3 -8 -1 -4 -12 10 -67 -101 -58 -116 3
-7 3 -9 -2 -5 -11 11 -58 -60 -49 -74 4 -6 3 -8 -3 -5 -14 9 -46 -40 -37 -55
5 -7 3 -8 -6 -3 -10 6 -12 4 -7 -9 4 -9 3 -15 -2 -12 -28 18 -29 -120 -1 -175
12 -22 24 -37 29 -35 10 6 44 -28 36 -36 -10 -9 46 -40 61 -34 8 3 12 1 9 -4
-3 -5 7 -12 22 -16 15 -3 41 -9 57 -13 60 -14 302 21 289 42 -3 6 -1 7 6 3 17
-11 73 3 65 16 -5 7 -2 8 6 3 16 -10 91 15 83 28 -3 6 -1 7 6 3 16 -10 53 3
45 16 -4 7 -2 8 4 4 14 -9 114 33 106 45 -3 5 3 6 12 2 13 -5 15 -3 9 7 -5 9
-4 11 3 6 15 -9 73 24 65 37 -3 6 -1 7 5 3 13 -8 56 17 46 26 -3 3 3 5 13 4
10 0 17 5 15 12 -1 8 2 11 8 7 13 -8 71 36 63 48 -3 6 -2 7 4 4 14 -9 55 22
47 35 -4 7 -2 8 4 4 16 -10 176 149 166 165 -4 7 -3 9 4 5 13 -8 55 48 44 59
-4 5 -2 5 5 1 14 -8 36 27 25 39 -4 5 -1 5 6 1 11 -6 17 5 13 26 0 5 5 7 12 5
6 -1 11 6 11 15 -1 10 3 16 10 15 6 -1 10 6 9 16 0 10 2 16 5 13 9 -10 34 33
26 46 -4 6 -3 8 3 5 13 -8 56 70 47 85 -5 7 -3 8 6 3 10 -6 12 -4 7 9 -4 9 -3
15 2 12 11 -7 23 22 14 36 -3 6 -1 8 4 5 11 -7 56 90 49 102 -3 4 43 1 102 -6
171 -20 234 -27 279 -27 22 -1 39 -4 37 -8 -6 -9 93 -21 107 -12 7 4 9 3 6 -3
-7 -12 189 -57 205 -47 6 4 8 3 4 -4 -8 -13 48 -27 65 -16 7 4 9 3 5 -4 -8
-13 48 -27 65 -16 7 4 9 3 6 -3 -8 -13 39 -27 55 -17 7 5 8 2 3 -6 -6 -10 -3
-12 13 -8 12 4 20 3 17 -2 -6 -10 43 -23 57 -14 7 5 8 2 3 -6 -6 -10 -3 -12
13 -8 14 4 20 2 15 -5 -4 -6 2 -8 15 -5 14 4 20 2 15 -5 -4 -6 2 -8 15 -5 12
4 20 2 17 -2 -7 -12 32 -23 46 -14 8 5 9 3 4 -6 -6 -10 -3 -12 13 -8 14 4 20
2 15 -5 -4 -6 2 -8 15 -5 14 4 20 2 15 -5 -4 -6 2 -8 15 -5 12 4 20 2 17 -2
-3 -5 26 -15 64 -24 102 -23 321 -20 306 4 -3 5 5 6 17 2 14 -3 19 -1 14 6 -4
8 -2 10 8 6 32 -12 184 94 169 119 -3 5 -1 7 4 4 14 -9 46 40 37 55 -5 7 -3 8
6 3 10 -6 12 -4 7 9 -4 10 -3 15 3 11 13 -8 40 90 40 151 0 63 -10 115 -20
109 -5 -3 -6 5 -2 17 3 14 1 19 -6 14 -8 -4 -10 -2 -6 8 7 19 -26 77 -39 69
-6 -3 -7 -1 -3 6 9 15 -32 73 -46 65 -6 -4 -8 -3 -5 3 3 5 -1 19 -9 31 -27 38
-155 143 -166 136 -7 -4 -8 -3 -4 4 5 9 -33 40 -41 34 -2 -1 -2 0 0 2 1 1 -14
21 -34 43 -21 23 -40 50 -44 62 -3 12 -9 19 -13 17 -4 -2 -8 14 -9 35 -2 57
-33 190 -43 184 -4 -3 -6 5 -2 17 4 16 2 19 -8 13 -9 -5 -11 -4 -6 4 9 15 -3
53 -15 46 -5 -3 -6 1 -3 9 7 19 -55 138 -69 129 -6 -3 -7 -1 -3 5 9 15 -43 93
-58 85 -6 -3 -8 -3 -4 2 11 11 -11 47 -24 39 -6 -4 -8 -3 -5 3 9 14 -22 55
-35 47 -7 -4 -8 -2 -4 4 9 15 -147 173 -166 170 -7 -2 -12 2 -11 9 3 15 -52
55 -62 45 -5 -4 -5 -2 -1 5 8 14 -27 36 -39 25 -5 -4 -5 -2 -1 5 8 14 -27 36
-39 25 -5 -4 -5 -2 -2 4 9 15 -70 67 -86 58 -7 -4 -9 -4 -5 1 11 11 -29 38
-44 29 -6 -4 -8 -3 -5 3 8 13 -50 46 -65 37 -6 -4 -8 -3 -5 3 8 12 -81 56 -95
47 -7 -5 -8 -2 -3 6 6 10 4 12 -9 7 -9 -4 -15 -3 -12 2 8 12 -50 35 -65 25 -7
-4 -10 -3 -5 4 8 13 -29 26 -45 16 -7 -4 -9 -3 -5 4 8 13 -88 46 -110 38 -10
-4 -13 -2 -8 6 5 7 0 9 -14 6 -14 -4 -20 -2 -15 5 4 6 -2 8 -15 5 -12 -4 -20
-2 -17 2 7 11 -173 53 -197 47 -11 -3 -15 -1 -12 5 5 7 -4 9 -24 6 -17 -2 -29
-1 -27 3 4 6 -110 25 -255 43 -136 17 -388 25 -533 16 -204 -12 -409 -39 -400
-53 3 -6 1 -7 -6 -3 -15 10 -113 -3 -106 -14 3 -4 -3 -6 -13 -3 -24 6 -204
-36 -197 -46 2 -5 -7 -6 -22 -3 -14 3 -23 1 -20 -4 3 -5 -17 -9 -43 -9 -26 0
-46 3 -44 7 6 10 -32 29 -41 20 -5 -4 -5 -2 -1 5 8 14 -27 36 -39 25 -5 -4 -5
-2 -2 4 9 15 -19 38 -34 28 -7 -4 -9 -3 -6 3 9 14 -70 66 -86 57 -7 -4 -9 -4
-5 1 11 12 -29 38 -45 29 -6 -4 -9 -3 -4 1 10 12 -71 58 -89 51 -8 -3 -13 -2
-10 3 8 12 -50 35 -65 25 -7 -4 -10 -3 -5 4 8 13 -88 46 -110 38 -8 -3 -13 -2
-10 3 7 11 -129 45 -150 37 -8 -3 -13 -2 -10 3 10 16 -146 33 -329 36 -99 2
-191 2 -205 -1z m362 -418 c20 0 34 -4 32 -7 -6 -10 64 -21 79 -13 6 4 9 3 4
-1 -9 -11 172 -77 186 -68 6 3 7 2 4 -4 -8 -12 101 -66 115 -57 7 5 8 2 3 -6
-6 -10 -4 -12 11 -6 10 4 15 4 11 0 -10 -11 31 -36 46 -28 6 4 9 4 5 -1 -11
-12 29 -38 45 -29 6 4 9 4 5 -1 -11 -11 60 -58 74 -49 6 4 8 3 5 -3 -9 -14 70
-66 85 -57 7 5 8 3 3 -6 -6 -10 -4 -12 9 -7 9 4 15 3 12 -2 -7 -11 22 -23 36
-14 6 3 8 1 5 -5 -10 -15 65 -25 129 -17 35 4 52 10 48 17 -4 7 -2 8 5 4 17
-11 92 4 84 16 -3 7 -1 8 6 4 15 -10 241 35 235 46 -3 4 2 5 10 2 8 -3 61 2
118 11 156 25 230 29 513 29 287 0 390 -11 613 -65 67 -16 128 -27 134 -23 7
5 8 3 3 -6 -6 -10 -3 -12 13 -8 14 4 20 2 15 -5 -4 -6 2 -8 15 -5 12 4 20 2
17 -2 -7 -11 62 -33 76 -24 7 4 9 3 5 -4 -8 -13 29 -26 45 -16 7 4 9 3 6 -3
-8 -13 70 -46 85 -37 7 5 8 2 3 -6 -6 -10 -4 -12 9 -7 11 5 15 3 10 -5 -5 -8
-1 -9 12 -4 10 4 15 4 11 0 -10 -10 52 -46 66 -38 7 4 9 4 5 -1 -11 -12 29
-38 45 -29 6 4 9 3 4 -1 -9 -11 73 -66 86 -58 6 3 7 1 3 -5 -8 -13 28 -35 39
-24 5 4 5 2 1 -5 -6 -12 31 -40 46 -35 5 1 7 -2 5 -6 -4 -13 126 -142 136
-135 6 3 7 2 4 -4 -8 -12 41 -79 54 -75 6 1 8 -2 5 -7 -4 -5 6 -31 22 -58 16
-26 37 -69 47 -95 9 -26 21 -45 25 -43 5 3 6 -5 2 -17 -3 -14 -1 -19 6 -14 8
4 10 2 6 -7 -5 -13 8 -69 38 -165 5 -19 14 -29 20 -26 7 4 8 2 4 -4 -10 -16
12 -54 26 -46 7 5 8 2 3 -6 -10 -16 141 -164 157 -154 6 4 8 3 5 -3 -8 -13 57
-65 68 -55 5 4 5 2 1 -5 -6 -12 45 -58 65 -58 5 0 8 -3 7 -6 -5 -12 25 -39 36
-32 6 3 8 3 4 -2 -4 -4 -3 -16 2 -26 6 -9 7 -25 3 -35 -5 -14 -14 -15 -62 -9
-31 4 -68 8 -83 9 -14 0 -24 5 -20 10 3 5 -5 7 -16 4 -12 -4 -20 -2 -17 2 7
11 -54 32 -68 23 -5 -3 -7 -1 -3 5 8 13 -29 26 -45 16 -7 -4 -9 -3 -5 4 8 13
-29 26 -45 16 -7 -4 -9 -3 -5 4 8 13 -89 47 -105 36 -8 -5 -9 -3 -4 6 6 10 3
12 -13 8 -12 -4 -20 -3 -17 2 6 10 -43 23 -57 14 -7 -5 -8 -2 -3 6 6 10 3 12
-13 8 -12 -4 -20 -3 -17 2 7 11 -81 34 -96 25 -7 -5 -10 -4 -6 2 8 13 -108 47
-129 39 -8 -3 -12 -2 -9 4 7 11 -60 25 -76 14 -7 -4 -10 -3 -6 3 8 13 -105 38
-128 29 -9 -3 -14 -2 -11 3 9 15 -301 53 -379 47 -16 -2 -56 -4 -88 -4 -32 -1
-56 -6 -53 -11 3 -4 -6 -6 -21 -3 -19 4 -24 2 -18 -8 5 -8 4 -11 -3 -6 -15 9
-63 -4 -56 -15 3 -5 -3 -6 -12 -2 -12 4 -15 3 -10 -5 5 -8 1 -10 -10 -5 -13 5
-15 3 -9 -7 5 -9 4 -11 -3 -6 -14 9 -57 -19 -57 -37 0 -6 -6 -12 -13 -12 -18
0 -43 -35 -35 -48 3 -6 1 -7 -5 -3 -13 8 -66 -100 -58 -120 4 -10 2 -12 -6 -8
-7 5 -9 0 -6 -14 4 -12 2 -20 -2 -17 -11 7 -32 -54 -23 -68 4 -6 1 -7 -7 -2
-10 6 -12 4 -7 -9 5 -11 3 -15 -5 -10 -8 5 -9 2 -5 -10 5 -11 3 -15 -5 -10 -8
5 -9 2 -5 -10 4 -9 3 -15 -1 -12 -12 7 -44 -52 -36 -67 4 -6 3 -9 -1 -4 -11 9
-66 -73 -58 -86 3 -6 1 -7 -4 -4 -11 7 -49 -42 -45 -56 1 -5 -1 -6 -6 -3 -10
6 -95 -77 -93 -90 1 -5 -2 -9 -6 -9 -21 -1 -53 -27 -47 -38 4 -7 4 -9 -1 -5
-11 10 -47 -11 -40 -23 4 -5 3 -9 -2 -8 -21 4 -34 -2 -27 -13 4 -6 3 -8 -4 -4
-6 3 -33 -7 -60 -24 -27 -17 -64 -35 -81 -41 -17 -6 -28 -16 -24 -22 3 -6 1
-7 -5 -3 -16 9 -63 -4 -56 -16 4 -6 -3 -5 -15 1 -11 7 -21 14 -21 17 0 3 4 3
9 0 11 -7 23 22 14 36 -3 6 -1 8 4 5 14 -9 37 48 27 64 -5 8 -3 9 6 4 10 -6
12 -3 8 13 -4 14 -2 20 4 16 7 -5 9 2 6 19 -3 15 -2 24 3 22 11 -7 22 78 14
107 -5 18 -4 20 4 8 8 -11 11 -2 13 40 5 152 -7 294 -24 284 -7 -4 -8 -2 -4 5
11 18 -2 63 -16 55 -6 -4 -8 -3 -5 4 9 14 -3 43 -14 36 -5 -3 -6 1 -3 9 7 19
-65 90 -83 82 -9 -3 -11 0 -7 7 5 7 0 9 -14 6 -12 -4 -20 -2 -16 3 3 5 -28 9
-71 9 -42 0 -74 -4 -71 -8 3 -5 -9 -6 -26 -4 -19 3 -28 1 -25 -5 4 -6 -4 -8
-20 -5 -16 3 -24 1 -20 -5 4 -6 -4 -8 -20 -5 -18 3 -24 1 -19 -6 5 -8 1 -10
-9 -6 -21 8 -206 -56 -198 -69 3 -6 1 -7 -6 -3 -16 10 -53 -3 -45 -16 4 -7 2
-8 -5 -4 -16 10 -53 -3 -45 -16 4 -7 2 -8 -5 -4 -16 10 -53 -3 -45 -16 5 -7 2
-8 -5 -4 -15 10 -73 -13 -65 -25 3 -5 -3 -6 -12 -2 -13 5 -15 3 -9 -7 6 -9 4
-11 -4 -5 -15 9 -93 -24 -85 -36 3 -5 -3 -6 -12 -2 -12 4 -15 3 -10 -5 5 -8 1
-10 -10 -5 -12 4 -15 3 -10 -5 5 -8 1 -10 -10 -5 -12 4 -15 3 -10 -5 5 -8 1
-10 -10 -5 -12 4 -15 3 -10 -5 5 -8 1 -10 -10 -5 -12 4 -15 3 -10 -5 5 -8 1
-10 -10 -5 -13 5 -15 3 -9 -7 5 -9 4 -11 -4 -6 -15 10 -263 -132 -255 -146 4
-7 2 -8 -4 -4 -14 9 -85 -38 -74 -49 4 -5 2 -5 -5 -1 -14 8 -65 -22 -58 -34 3
-4 -3 -7 -13 -6 -9 0 -16 -5 -14 -12 1 -8 -1 -11 -6 -8 -13 8 -138 -83 -134
-97 2 -7 0 -9 -3 -5 -11 11 -47 -11 -39 -24 4 -6 3 -8 -3 -5 -14 9 -104 -63
-96 -76 3 -5 2 -7 -4 -4 -13 8 -48 -17 -48 -35 0 -7 -5 -13 -12 -13 -19 0 -74
-45 -68 -56 4 -5 2 -8 -3 -7 -13 4 -93 -62 -87 -71 2 -5 -2 -14 -10 -21 -8 -7
-15 -9 -15 -4 0 5 -29 -20 -64 -55 -36 -36 -64 -69 -63 -75 1 -6 -3 -10 -10
-9 -14 3 -98 -91 -98 -109 0 -7 -6 -13 -14 -13 -17 0 -102 -106 -94 -118 3 -6
1 -7 -5 -3 -13 8 -35 -28 -24 -39 4 -3 2 -5 -5 -3 -15 4 -64 -62 -56 -75 3 -6
1 -7 -4 -4 -11 7 -46 -39 -46 -60 0 -6 -5 -11 -11 -10 -6 1 -10 -6 -10 -15 1
-10 -3 -16 -10 -15 -6 1 -10 -6 -10 -15 1 -10 -2 -16 -6 -13 -12 7 -42 -44
-34 -58 4 -7 3 -9 -1 -4 -12 10 -68 -81 -59 -95 4 -6 3 -8 -3 -5 -13 8 -46
-50 -37 -65 5 -7 3 -8 -6 -3 -10 6 -12 4 -7 -9 4 -9 3 -15 -2 -11 -12 7 -104
-182 -95 -197 4 -6 3 -8 -3 -5 -13 8 -46 -70 -37 -85 4 -6 2 -8 -4 -4 -13 8
-26 -29 -16 -45 4 -7 3 -9 -4 -5 -13 8 -26 -29 -16 -45 4 -7 3 -9 -4 -5 -13 8
-56 -118 -48 -140 3 -8 2 -13 -3 -10 -12 8 -39 -104 -47 -192 -7 -74 1 -146
16 -137 4 3 6 -5 2 -17 -3 -14 -1 -19 6 -14 8 5 10 1 5 -10 -5 -13 -3 -15 7
-9 9 5 11 4 6 -3 -9 -15 23 -64 37 -55 5 3 7 1 4 -4 -9 -14 32 -65 45 -57 6 4
8 3 5 -3 -8 -12 80 -113 96 -110 6 1 11 -2 12 -8 2 -22 27 -55 37 -49 6 4 8 3
5 -3 -8 -13 41 -79 56 -75 7 2 9 0 5 -3 -11 -11 21 -67 34 -59 7 4 8 3 4 -4
-8 -14 24 -73 36 -66 4 3 5 -3 1 -12 -4 -12 -3 -15 5 -10 8 5 10 1 5 -10 -5
-13 -3 -15 7 -9 8 5 11 4 7 -2 -9 -14 12 -75 23 -68 4 3 6 -5 2 -17 -3 -11 -1
-19 4 -16 5 4 9 -7 9 -23 0 -16 -2 -29 -5 -29 -3 1 -20 14 -39 30 -19 16 -39
26 -44 23 -6 -3 -7 -1 -3 5 8 13 -28 35 -39 24 -3 -4 -5 0 -3 8 2 9 -4 14 -14
14 -10 -1 -16 2 -13 6 8 13 -121 73 -136 64 -7 -4 -10 -3 -6 3 8 12 -101 65
-116 57 -7 -4 -9 -3 -4 1 9 11 -43 46 -56 38 -6 -3 -7 -2 -4 4 6 9 -44 66 -54
61 -2 -2 -3 -1 -2 1 5 9 -19 41 -27 36 -6 -3 -7 0 -4 8 3 8 -2 20 -11 27 -13
11 -22 10 -55 -5 -22 -10 -37 -22 -33 -28 3 -6 1 -7 -5 -3 -12 7 -123 -24
-117 -33 2 -3 -11 -6 -28 -7 -18 0 -61 -4 -97 -8 -36 -5 -94 -10 -129 -13 -43
-4 -59 -8 -50 -15 10 -6 7 -7 -9 -3 -30 9 -124 -4 -116 -16 3 -5 -2 -6 -10 -3
-13 5 -89 -14 -133 -32 -9 -4 -12 3 -11 19 1 14 6 24 10 21 7 -4 32 33 33 49
0 4 4 7 9 6 15 -2 95 84 89 95 -3 6 -3 8 2 4 9 -9 96 52 90 62 -3 4 3 7 13 6
9 0 16 5 15 11 -2 7 0 12 5 12 20 -3 32 2 26 13 -4 6 -3 8 3 5 14 -9 126 46
116 57 -4 4 1 4 11 0 13 -5 17 -4 12 4 -5 8 -2 10 8 6 18 -7 98 35 90 47 -3 5
3 6 12 2 11 -4 15 -2 11 4 -4 6 1 10 11 9 9 0 16 5 14 12 -1 8 2 11 8 7 11 -7
71 32 67 43 -1 4 1 7 4 7 14 0 38 28 32 38 -3 6 -1 7 5 3 13 -8 35 28 24 39
-4 5 -1 5 6 1 23 -14 61 104 77 239 3 28 12 140 20 250 17 223 43 442 55 464
4 8 4 26 -1 39 -5 13 -5 21 0 18 11 -7 35 119 25 135 -4 7 -3 10 3 6 12 -7 57
178 47 194 -4 7 -3 9 3 6 13 -8 38 77 28 94 -5 7 -4 10 2 6 13 -8 27 39 17 55
-5 7 -2 8 6 3 10 -6 12 -3 8 13 -4 14 -2 20 5 15 6 -4 8 2 5 15 -4 12 -3 20 1
17 10 -6 92 215 84 228 -3 6 -1 7 4 4 13 -8 36 50 26 66 -4 6 -1 7 7 2 10 -6
12 -4 7 9 -5 11 -3 15 5 10 8 -5 9 -2 5 10 -4 9 -3 15 1 12 11 -7 114 203 106
216 -5 7 -2 8 6 3 10 -6 12 -4 6 11 -4 10 -4 15 0 11 10 -10 36 31 28 45 -5 7
-3 8 6 3 10 -6 12 -4 6 11 -4 10 -4 15 0 11 11 -10 36 31 28 46 -4 6 -4 9 1 5
12 -11 38 29 29 45 -4 6 -3 9 1 4 11 -9 106 133 98 146 -3 6 -1 7 4 4 11 -7
46 39 46 60 0 7 4 10 8 7 4 -2 12 3 18 13 5 10 34 49 64 87 31 39 53 74 50 79
-3 6 -1 7 5 3 13 -8 74 68 64 79 -4 5 -2 5 5 2 6 -4 29 14 53 43 23 27 38 50
34 50 -4 0 5 13 21 30 15 16 31 27 35 25 4 -2 22 11 40 30 19 19 30 35 25 35
-5 0 4 13 20 30 15 16 31 27 35 25 9 -6 135 121 135 137 1 7 6 12 12 11 16 -3
75 75 67 89 -4 6 -3 8 3 5 13 -8 56 70 47 85 -4 6 -3 8 4 4 13 -8 26 29 16 45
-4 7 -3 9 4 5 6 -4 14 13 21 44 19 88 11 257 -12 243 -6 -4 -7 -1 -3 6 10 16
-2 83 -14 76 -4 -3 -6 5 -2 17 3 14 1 19 -6 14 -8 -4 -10 -2 -6 7 10 27 -92
225 -109 212 -4 -3 -5 -2 -2 1 8 12 -16 45 -27 38 -6 -4 -8 -3 -5 3 8 13 -22
55 -34 47 -5 -3 -8 0 -7 7 2 7 -2 13 -9 14 -15 0 -26 12 -29 29 -2 13 37 13
308 2z m1946 -233 c-26 -2 -71 -2 -100 0 -29 2 -8 3 47 3 55 0 79 -1 53 -3z
m-2541 -5020 c-2 -16 -4 -3 -4 27 0 30 2 43 4 28 2 -16 2 -40 0 -55z"/>
<path d="M4975 5740 c-10 -11 -14 -20 -10 -20 5 0 -6 -16 -25 -35 -18 -19 -37
-32 -41 -29 -10 6 -75 -75 -71 -88 1 -5 -2 -7 -7 -4 -12 8 -53 -49 -43 -59 4
-5 2 -5 -4 -2 -13 7 -77 -77 -66 -88 4 -3 2 -5 -5 -3 -16 4 -95 -101 -86 -115
3 -6 1 -7 -5 -3 -13 8 -35 -28 -24 -39 4 -5 2 -5 -4 -2 -12 7 -47 -38 -47 -60
0 -7 -4 -10 -8 -8 -10 7 -251 -353 -244 -365 4 -6 1 -9 -7 -8 -7 2 -12 -5 -11
-15 0 -10 -2 -16 -5 -13 -9 10 -83 -114 -76 -126 4 -6 3 -8 -3 -5 -13 8 -46
-50 -37 -65 4 -6 3 -8 -3 -5 -13 8 -46 -50 -37 -65 5 -7 3 -8 -6 -3 -10 6 -12
4 -7 -9 4 -9 3 -15 -2 -12 -9 6 -80 -132 -101 -197 -6 -21 -9 -45 -6 -53 3 -8
2 -13 -3 -10 -5 3 -14 -24 -21 -60 -17 -91 -3 -283 20 -269 5 3 6 -5 2 -17 -3
-11 -1 -19 4 -16 5 4 10 -4 10 -17 2 -25 70 -136 81 -133 5 2 8 0 8 -3 0 -15
38 -48 48 -42 6 3 7 1 3 -5 -8 -13 33 -43 48 -35 6 3 8 3 4 -2 -11 -11 29 -38
44 -29 7 5 8 3 3 -6 -6 -10 -4 -12 9 -7 11 5 15 3 10 -5 -5 -8 -2 -9 10 -5 10
4 15 3 11 -3 -8 -12 112 -48 205 -62 47 -6 161 -8 306 -4 l232 6 -2 -24 c0
-13 -5 -22 -10 -18 -5 3 -6 -2 -3 -12 5 -11 3 -15 -5 -10 -8 5 -9 2 -5 -10 4
-9 3 -15 -2 -12 -12 8 -43 -72 -35 -86 5 -7 2 -8 -6 -3 -10 6 -12 4 -7 -9 4
-9 3 -15 -2 -12 -12 8 -45 -70 -36 -85 6 -8 4 -10 -5 -4 -10 6 -12 4 -7 -9 4
-9 3 -15 -2 -12 -12 8 -43 -72 -35 -86 5 -7 2 -8 -6 -3 -10 6 -12 4 -7 -9 4
-9 3 -15 -2 -12 -11 7 -33 -53 -24 -67 4 -6 1 -7 -7 -2 -10 6 -12 4 -7 -9 4
-9 3 -15 -2 -12 -12 8 -43 -72 -35 -86 4 -6 3 -8 -3 -5 -13 8 -47 -68 -38 -84
5 -7 4 -10 -2 -6 -13 8 -46 -70 -37 -85 4 -6 2 -8 -3 -5 -13 8 -46 -70 -37
-85 4 -6 3 -8 -3 -5 -14 9 -37 -48 -27 -64 5 -8 3 -9 -6 -4 -10 6 -12 4 -7 -9
4 -9 3 -15 -2 -12 -12 8 -35 -50 -25 -65 5 -8 3 -9 -6 -4 -10 6 -12 4 -7 -9 4
-9 3 -15 -2 -12 -11 7 -33 -53 -24 -67 4 -6 1 -7 -7 -2 -10 6 -12 4 -7 -9 4
-9 3 -15 -2 -12 -11 7 -33 -53 -24 -67 4 -6 1 -7 -7 -2 -10 6 -12 4 -7 -9 4
-9 3 -15 -2 -12 -11 7 -33 -53 -24 -67 3 -5 1 -7 -4 -4 -13 8 -36 -50 -26 -66
4 -6 1 -7 -7 -2 -10 6 -12 4 -7 -9 4 -9 3 -15 -2 -12 -11 7 -42 -74 -34 -87 3
-6 1 -7 -4 -4 -14 9 -37 -48 -27 -64 4 -7 3 -10 -3 -6 -15 9 -53 -96 -53 -144
0 -24 4 -38 10 -34 6 3 7 -1 4 -9 -8 -21 61 -90 82 -82 8 3 12 2 9 -4 -4 -6
13 -10 43 -10 54 0 137 37 137 61 1 8 6 13 12 12 5 -1 23 11 38 27 16 17 25
30 20 30 -5 0 4 13 20 30 15 16 31 27 35 25 11 -7 151 151 142 160 -4 3 -2 5
3 3 6 -2 12 2 13 7 7 18 24 35 32 30 9 -6 163 157 162 171 -1 14 30 44 39 39
8 -5 194 189 194 202 0 15 16 33 25 28 8 -5 169 164 168 178 0 14 54 67 63 62
8 -6 185 183 182 194 -3 10 39 51 48 46 8 -6 162 158 161 171 -1 14 40 54 49
49 9 -6 154 152 154 169 1 6 6 10 12 9 13 -3 156 149 155 163 -1 14 19 34 28
29 9 -5 244 240 238 249 -5 8 64 76 73 71 10 -7 69 66 63 77 -3 5 0 7 8 6 7
-2 12 5 12 14 -1 10 2 16 6 13 11 -7 22 24 13 37 -4 7 -1 8 7 3 10 -6 12 -3 8
13 -4 12 -2 20 3 16 10 -6 12 75 3 100 -3 9 -11 13 -17 9 -6 -3 -7 -1 -3 6 15
24 -43 65 -114 83 -19 4 -227 8 -462 8 -278 0 -429 3 -433 10 -3 6 0 7 9 4 15
-6 22 11 17 38 0 5 3 7 8 5 14 -3 131 154 124 166 -3 6 -1 7 5 3 13 -8 35 28
24 39 -4 5 -2 5 5 1 14 -8 36 27 25 39 -4 5 -2 5 5 1 14 -8 36 27 25 39 -4 5
-2 5 4 2 13 -8 76 77 66 88 -4 5 -2 5 5 1 14 -7 36 27 25 39 -4 3 -2 5 5 3 14
-4 65 61 57 74 -3 5 -1 7 4 6 13 -4 112 124 105 136 -3 5 -1 6 5 2 13 -8 35
28 24 39 -4 5 -2 5 4 2 13 -8 76 77 66 88 -4 5 -2 5 5 1 14 -8 36 27 25 39 -4
5 -2 5 5 1 14 -7 56 47 45 59 -4 5 -2 5 5 1 12 -7 40 31 35 47 -1 5 2 6 7 3
12 -8 42 34 34 47 -3 6 -1 7 4 4 6 -4 18 5 28 19 17 26 14 54 -5 54 -6 0 -8
-5 -4 -12 4 -7 3 -8 -4 -4 -14 9 -114 -33 -106 -45 3 -5 -3 -6 -12 -2 -13 5
-15 3 -9 -7 5 -9 4 -11 -4 -6 -15 10 -73 -13 -65 -25 3 -5 -3 -6 -12 -2 -13 5
-15 3 -9 -7 5 -8 4 -11 -3 -6 -15 9 -93 -24 -85 -37 3 -6 1 -7 -6 -3 -16 10
-53 -3 -45 -16 4 -7 2 -8 -5 -4 -16 10 -53 -3 -45 -16 4 -7 2 -8 -5 -4 -16 10
-53 -3 -45 -16 4 -7 2 -8 -4 -4 -15 9 -153 -35 -146 -46 3 -4 -1 -5 -9 -2 -8
3 -39 -2 -68 -10 -29 -9 -55 -14 -57 -11 -3 3 -10 1 -17 -5 -22 -19 -204 -41
-314 -38 -60 2 -108 5 -106 8 4 7 -126 55 -138 52 -5 -1 -6 2 -3 7 6 9 -22 26
-37 22 -5 -1 -6 3 -3 7 7 11 -28 44 -37 37 -4 -3 -5 -2 -3 1 2 3 -11 31 -30
61 -19 31 -34 61 -34 66 0 4 -4 6 -9 3 -5 -3 -8 0 -8 7 3 24 -15 97 -22 93 -4
-3 -7 72 -6 165 0 148 -2 169 -16 169 -9 0 -24 -9 -34 -20z m-177 -2217 c-10
-2 -26 -2 -35 0 -10 3 -2 5 17 5 19 0 27 -2 18 -5z"/>
</g>
</svg>
